<?xml version="1.0" encoding="UTF-8"?>
<svg xmlns="http://www.w3.org/2000/svg" xmlns:xlink="http://www.w3.org/1999/xlink" viewBox="0 0 406.3512 442.983">
  <defs>
    <style>
      .cls-1, .cls-2, .cls-3, .cls-4 {
        fill: #fff;
      }

      .cls-1, .cls-5, .cls-6, .cls-7, .cls-8, .cls-9, .cls-10 {
        stroke-linecap: round;
        stroke-linejoin: round;
      }

      .cls-1, .cls-5, .cls-7, .cls-8, .cls-9, .cls-10 {
        stroke: #27138b;
      }

      .cls-11, .cls-12 {
        opacity: .2;
      }

      .cls-5 {
        stroke-dasharray: 0 0 2.9483 2.9483;
      }

      .cls-5, .cls-6, .cls-10 {
        fill: none;
      }

      .cls-6 {
        stroke: #fff;
      }

      .cls-7, .cls-13, .cls-14 {
        fill: #d7c1fc;
      }

      .cls-8, .cls-15 {
        fill: #27138b;
      }

      .cls-12, .cls-15, .cls-13, .cls-3, .cls-14 {
        stroke-width: 0px;
      }

      .cls-16 {
        clip-path: url(#clippath-1);
      }

      .cls-13 {
        opacity: .4;
      }

      .cls-9 {
        fill: #cdb0ff;
      }

      .cls-17 {
        clip-path: url(#clippath);
      }

      .cls-3 {
        opacity: .7;
      }

      .cls-4 {
        font-family: MontserratRoman-ExtraBold, Montserrat;
        font-size: 10px;
        font-variation-settings: 'wght' 800;
        font-weight: 700;
      }
    </style>
    <clipPath id="clippath">
      <path class="cls-1" d="M133.0527,392.9802s-11.1299,7.5734-15.6137,7.0686c-.5574-.0553-.9946-.2313-1.3192-.5587-2.9252-3.0168-5.2739-8.3144-5.2739-8.3144,0,0,1.3912-1.9337,5.6902,3.1913l2.7321-2.5069-5.6397-5.6654s3.1746-2.5212,8.5626.6857c-.1794-.3858-3.658-7.9524-1.0351-18.2538l-13.1381-12.6556,11.6287-10.1315.8961-.7799s.734.7217,1.9172,1.8413c1.1458,1.0863,2.7233,2.5389,4.4371,4.0426,4.1016,3.604,9.0617,7.5086,11.2117,7.4726,3.9794-.078-5.056,34.5641-5.056,34.5641Z"/>
    </clipPath>
    <clipPath id="clippath-1">
      <path class="cls-1" d="M326.3227,265.8655s-2.8212,20.8902-17.1205,29.069c-14.1601,2.0197-30.0419-9.715-35.3975-23.8151-4.2326-11.1294-.5274-23.7608,1.4869-29.1654.0009-.01.0108-.0092.0108-.0092,16.7281-9.5465,51.0203,23.9207,51.0203,23.9207Z"/>
    </clipPath>
  </defs>
  <g id="Background_Simple" data-name="Background Simple">
    <path class="cls-3" d="M10.5299,137.9708s-27.8768,71.9876,11.2969,144.5035c39.1736,72.5157,119.8787,110.8016,184.4692,143.5481,64.5904,32.7463,131.661,16.7992,163.534-36.8376,31.8726-53.6366-11.8452-91.9284-11.8969-168.4183-.0514-76.4904,11.4472-96.7415-29.9633-161.3642C286.5595-5.2206,184.9111-19.5229,108.0703,28.4061,31.2294,76.3354,10.5299,137.9708,10.5299,137.9708Z"/>
    <g>
      <path class="cls-14" d="M16.5439,159.5469c35.4166-35.4043,65.4065-5.7008,78.0428-53.2417C123.1295-1.0799,241.4995-.0337,257.0648,76.3534c28.0476,137.6447,150.1891,50.2319,149.2813,148.8171-.9693,105.2548-78.3709,187.2316-217.1926,195.4243-124.4533,7.3448-231.2907-202.3873-172.6096-261.0479Z"/>
      <path class="cls-3" d="M16.5439,159.5469c35.4166-35.4043,65.4065-5.7008,78.0428-53.2417C123.1295-1.0799,241.4995-.0337,257.0648,76.3534c28.0476,137.6447,150.1891,50.2319,149.2813,148.8171-.9693,105.2548-78.3709,187.2316-217.1926,195.4243-124.4533,7.3448-231.2907-202.3873-172.6096-261.0479Z"/>
    </g>
  </g>
  <g id="Discount">
    <g>
      <g>
        <path class="cls-15" d="M104.4089,99.2331c-.2237-1.9082.6328-3.0815,2.4604-3.2954,1.8286-.2143,2.9326.7295,3.1563,2.6377l.7138,6.0928c.2232,1.9072-.6328,3.0825-2.4614,3.2969-1.8276.2138-2.9321-.732-3.1558-2.6392l-.7133-6.0928ZM106.9928,105.241c.0962.8222.481,1.1254,1.0899,1.0542.583-.0684.9136-.4556.8174-1.2779l-.7447-6.3574c-.0962-.8213-.5078-1.1226-1.0908-1.0542-.6089.0713-.9126.4565-.8164,1.2778l.7446,6.3575ZM114.1969,95.2131l1.7222-.2016-5.1401,19.4004-1.7222.2016,5.1401-19.4004ZM114.3957,104.9382c-.2232-1.9072.6328-3.082,2.4609-3.2959,1.8276-.2138,2.9321.7305,3.1553,2.6377l.7139,6.0938c.2236,1.9072-.6329,3.082-2.4605,3.2959-1.8281.2138-2.9321-.7305-3.1558-2.6377l-.7138-6.0938ZM116.9797,110.9465c.0962.8213.4804,1.1255,1.0898,1.0542.583-.0683.9136-.4565.8174-1.2778l-.7446-6.3584c-.0962-.8213-.5079-1.1216-1.0904-1.0532-.6093.0713-.9131.4555-.8169,1.2768l.7447,6.3584Z"/>
        <path class="cls-10" d="M125.0691,117.8438l-21.6489,2.5356c-1.0258.1201-1.9548-.6141-2.0749-1.6399l-2.6192-22.3632c-.0989-.844.1972-1.6863.8024-2.2828l9.0384-8.9085c.8985-.8855,2.2836-1.0477,3.3624-.3938l10.8522,6.5789c.7267.4405,1.2094,1.1916,1.3082,2.0356l2.6192,22.3632c.1202,1.0258-.614,1.9548-1.6398,2.0749Z"/>
        <path class="cls-10" d="M111.9621,87.6758c.0893.7623-.4563,1.4527-1.2186,1.542-.7624.0893-1.4528-.4563-1.542-1.2187-.0893-.7623.4563-1.4527,1.2186-1.542.7624-.0893,1.4527.4564,1.542,1.2187Z"/>
        <path class="cls-10" d="M110.5818,72.0132s4.233,16.2905,0,15.8243"/>
        <path class="cls-10" d="M109.5028,84.5822c.8263-4.5266,4.9774-12.156,4.9774-12.156"/>
        <path class="cls-10" d="M110.5818,87.8375c-.56-.0617-.9036-.3768-1.0782-.8771"/>
      </g>
      <g>
        <path class="cls-10" d="M129.473,78.0612c3.7317,3.0126,6.6858,7.0028,8.4379,11.6545"/>
        <path class="cls-10" d="M85.6412,92.5132c2.6954-10.3544,11.3474-18.6103,22.5998-20.259,6.7677-.9916,13.32.5764,18.6759,3.9735"/>
        <path class="cls-10" d="M94.1853,120.121c-4.7726-4.1542-8.1404-9.9695-9.1296-16.721"/>
        <path class="cls-10" d="M111.145,126.8591c-5.124-.1951-9.9691-1.8234-14.0754-4.5428"/>
        <path class="cls-10" d="M139.3867,95.4395c2.1983,15.0031-8.1821,28.9476-23.1853,31.1458"/>
      </g>
    </g>
  </g>
  <g id="Gift">
    <g>
      <g>
        <path class="cls-10" d="M40.5533,190.2709h35.1762v21.0276c0,.9136-.7417,1.6554-1.6554,1.6554h-31.8654c-.9137,0-1.6555-.7418-1.6555-1.6555v-21.0276h0Z" transform="translate(39.2163 -7.3609) rotate(10.9119)"/>
        <path class="cls-10" d="M42.4893,183.3392h36.9615v5.5466c0,.9136-.7418,1.6554-1.6554,1.6554h-33.6507c-.9136,0-1.6554-.7418-1.6554-1.6554v-5.5466h0Z" transform="translate(85.4498 382.0419) rotate(-169.088)"/>
        <rect class="cls-10" x="56.3082" y="183.1342" width="5.0298" height="29.8849" transform="translate(38.5575 -7.5537) rotate(10.9114)"/>
        <path class="cls-10" d="M61.6517,183.4043s8.5622-6.2481,12.523-4.3561c3.9607,1.892,2.0054,7.157.0108,6.7724"/>
        <path class="cls-10" d="M65.0378,184.0571s6.9696-3.4683,7.984-1.9011c1.0143,1.5671-2.0002,3.0547-4.3117,2.6091"/>
        <path class="cls-10" d="M61.8823,182.9786s3.6182-6.5743,3.1449-8.6716l2.4144-.0047s.7858,2.4927-2.0316,6.75"/>
        <path class="cls-10" d="M61.6517,183.4043s-5.6259-8.9833-10.0061-8.6994c-4.3802.2839-4.5223,5.8985-2.5277,6.283"/>
        <path class="cls-10" d="M58.2655,182.7515s-5.1807-5.8108-6.705-4.733c-1.5242,1.0778.7213,3.5794,3.0328,4.025"/>
        <path class="cls-10" d="M61.5958,182.9234s-.9149-7.4483.3042-9.2193l-2.2396-.9019s-1.6562,2.0219-.6234,7.0215"/>
      </g>
      <g>
        <path class="cls-10" d="M87.1468,172.88c3.7968,4.8054,6.3493,10.6088,7.2179,16.8967"/>
        <path class="cls-10" d="M28.4792,178.5032c6.2802-12.1341,19.3862-19.9731,33.8651-18.8495,8.7083.6758,16.4258,4.4784,22.1368,10.2213"/>
        <path class="cls-10" d="M31.3254,215.2978c-4.7708-6.5211-7.3232-14.7142-6.649-23.4016"/>
        <path class="cls-10" d="M50.5443,228.4775c-6.3263-1.6897-11.9005-5.0855-16.2467-9.6314"/>
        <path class="cls-10" d="M94.5867,197.3216c-1.4982,19.3053-18.3627,33.7407-37.6679,32.2425"/>
      </g>
    </g>
  </g>
  <g id="Update">
    <g>
      <g>
        <g>
          <path class="cls-10" d="M233.2801,103.9601l-2.9408-1.5044c.5321-1.2954.5218-2.9287.4329-4.0098.9596.4424,1.9263.8971,2.8387,1.3325-.0522,1.2091-.1513,2.6368-.3308,4.1817Z"/>
          <path class="cls-10" d="M237.5632,101.7141c.9548.4885,1.9523.8149,2.9592.99.6965,3.8607.9984,10.2817-2.4072,16.9388-.7564,1.4786-8.733-2.6021-7.9765-4.0807,1.8237-3.5647,2.7127-7.9108,3.1414-11.6021.1795-1.5449.2786-2.9726.3308-4.1817,1.6612.7929,3.1282,1.5141,3.9523,1.9357Z"/>
          <path class="cls-10" d="M247.063,83.1449c2.5569,1.3081,4.3544,3.5415,5.1649,6.0767.8261,2.5301.6754,5.393-.6327,7.95-1.3135,2.5674-3.5417,4.3545-6.0821,5.1753-1.5853.5176-3.3012.651-4.9907.3572-1.0069-.1751-2.0044-.5015-2.9592-.99-.8241-.4216-2.2911-1.1428-3.9523-1.9357-.9124-.4354-1.8791-.8901-2.8387-1.3325-2.3001-1.0603-4.528-2.035-5.6809-2.4097l10.0695-19.6828c2.1299,1.5579,9.541,5.5836,11.9022,6.7915Z"/>
          <path class="cls-10" d="M225.3949,67.0643c2.8369,3.5328,6.1178,6.6553,9.7659,9.2891l-10.0695,19.6828c-4.2705-1.4173-8.7224-2.2507-13.2472-2.4842l-3.9072-.2036,15.0066-29.3334,2.4514,3.0493Z"/>
          <path class="cls-10" d="M203.3951,94.1786l17.5665-34.3372c.2774-.5423.9419-.757,1.4842-.4796l1.2993.6647c.5423.2774.757.9419.4796,1.4843l-1.2812,2.5042-15.0066,29.3334-1.2787,2.4995c-.2775.5423-.9419.757-1.4842.4796l-1.2994-.6647c-.5422-.2774-.7569-.9419-.4795-1.4842Z"/>
        </g>
        <line class="cls-9" x1="203.9174" y1="72.7868" x2="197.1473" y2="69.3233"/>
        <line class="cls-9" x1="211.8485" y1="61.9244" x2="207.5822" y2="54.4572"/>
        <line class="cls-9" x1="199.7519" y1="85.5697" x2="191.2001" y2="86.4792"/>
      </g>
      <g>
        <path class="cls-10" d="M256.3401,53.2442c-5.8101-5.3708-13.0301-9.2386-21.0422-10.986"/>
        <path class="cls-10" d="M243.2326,128.2488c16.2572-6.8762,27.6643-22.9738,27.6643-41.7356,0-11.2843-4.1265-21.6049-10.9527-29.535"/>
        <path class="cls-10" d="M196.124,120.9048c7.9225,6.7969,18.2205,10.9035,29.4777,10.9035"/>
        <path class="cls-10" d="M181.0689,94.8325c1.5441,8.3174,5.3608,15.8367,10.7818,21.8892"/>
        <path class="cls-10" d="M225.6017,41.218c-25.0158,0-45.2951,20.2794-45.2951,45.2952"/>
      </g>
    </g>
  </g>
  <g id="Heart">
    <g>
      <path class="cls-10" d="M145.3799,159.442c-3.8021-3.3967-7.7409-1.9073-9.7583-.7136-.4051-2.3089-1.843-6.2735-6.8957-6.9533-5.4859-.7302-9.9735,4.6227-8.5039,12.0734,1.0636,5.3595,4.4871,10.2681,6.3236,12.5913.2186.2792.4239.5225.5915.7186.2581-.0002.5764-.0024.9307-.0179,2.9592-.1154,8.9144-.7065,13.6695-3.3872,6.6241-3.7247,7.7646-10.6185,3.6426-14.3113Z"/>
      <g>
        <path class="cls-10" d="M124.0266,180.6402s-.267.498-.6295,1.3577"/>
        <path class="cls-5" d="M122.4064,184.7696c-1.4617,4.9274-2.3321,13.1263,5.5175,18.1306,19.7199,12.572,26.3555-17.0849,11.2562-14.4196-10.3499,1.8268.5279,29.1329,16.7185,23.8375"/>
        <path class="cls-10" d="M157.2841,211.7896c.4458-.1944.8952-.4138,1.3478-.6595"/>
      </g>
    </g>
  </g>
  <g id="Character">
    <g>
      <g>
        <path class="cls-2" d="M133.0527,392.9802s-11.1299,7.5734-15.6137,7.0686c-.5574-.0553-.9946-.2313-1.3192-.5587-2.9252-3.0168-5.2739-8.3144-5.2739-8.3144,0,0,1.3912-1.9337,5.6902,3.1913l2.7321-2.5069-5.6397-5.6654s3.1746-2.5212,8.5626.6857c-.1794-.3858-3.658-7.9524-1.0351-18.2538l-13.1381-12.6556,11.6287-10.1315.8961-.7799s.734.7217,1.9172,1.8413c1.1458,1.0863,2.7233,2.5389,4.4371,4.0426,4.1016,3.604,9.0617,7.5086,11.2117,7.4726,3.9794-.078-5.056,34.5641-5.056,34.5641Z"/>
        <g class="cls-17">
          <path class="cls-13" d="M124.4464,388.0168s-6.3403,6.538-7.0074,12.032c-.5574-.0553-.9946-.2313-1.3192-.5587-2.9252-3.0168-5.2739-8.3144-5.2739-8.3144,0,0,1.3912-1.9337,5.6902,3.1913l2.7321-2.5069-5.6397-5.6654s3.1746-2.5212,8.5626.6857c-.1794-.3858-3.658-7.9524-1.0351-18.2538l-13.1381-12.6556,11.6287-10.1315,2.8133,1.0614c1.1458,1.0863,2.7233,2.5389,4.4371,4.0426-2.4606,3.6126-7.7319,11.0702-7.7319,11.0702l4.5545,6.1791s-2.7607,15.5776.7268,19.824Z"/>
        </g>
        <path class="cls-10" d="M133.0527,392.9802s-11.1299,7.5734-15.6137,7.0686c-.5574-.0553-.9946-.2313-1.3192-.5587-2.9252-3.0168-5.2739-8.3144-5.2739-8.3144,0,0,1.3912-1.9337,5.6902,3.1913l2.7321-2.5069-5.6397-5.6654s3.1746-2.5212,8.5626.6857c-.1794-.3858-3.658-7.9524-1.0351-18.2538l-13.1381-12.6556,11.6287-10.1315.8961-.7799s.734.7217,1.9172,1.8413c1.1458,1.0863,2.7233,2.5389,4.4371,4.0426,4.1016,3.604,9.0617,7.5086,11.2117,7.4726,3.9794-.078-5.056,34.5641-5.056,34.5641Z"/>
      </g>
      <path class="cls-10" d="M119.2691,391.8634s.9677-3.0392,2.9343-4.9742"/>
    </g>
    <path class="cls-14" d="M326.9718,304.796c-1.5795,2.4-3.7299,4.6632-6.3008,6.792,0,0-.0099-.0008-.0107.0092-20.4699,16.9478-67.6632,25.3231-67.6632,25.3231,0,0-1.5771,2.37-4.0084,5.7442-4.3649,6.0564-11.5117,15.3582-17.3385,20.0216l-.01-.0008c-2.4583,1.9774-4.6882,3.1205-6.3688,2.8134l8.8504,32.7042,3.9631,14.1976s-40.6915,17.7527-110.2957-2.5512c0,0-.7869-9.0836-.198-11.0223.0273-.088.0553-.1861.0933-.2834.6487-1.5625,2.7268-3.4304,2.7268-3.4304,0,0-.3882-5.8406-.5873-11.7862-.1566-4.6179-.1978-9.2966.1417-11.376.4946-2.9997,2.6887-10.2458,3.7909-13.8083.3935-1.2623.6493-2.0642.6493-2.0642l-3.4644-32.4371-.9967-9.3415s-.0161-.1718-.0508-.4856c-.0043-.0706-.0086-.1412-.0212-.2325l-.546-5.0107-17.9017,5.4681s.9536,2.0941,2.2294,5.0371c2.3521,5.3781,5.8097,13.5751,6.5795,16.8182.0587.2655.1381.5228.2275.7809,1.6624,4.7302,7.9653,9.0248,7.9653,9.0248l-16.9504,19.8123-5.0131-3.4976s-.7288.5729-2.0196,1.2706c-3.2957,1.789-10.2113,4.4176-17.761.4029-2.7601-1.4683-5.5993-3.816-8.3771-7.4128-13.3628-17.2991-19.1004-31.3901-17.2213-47.9724,1.88-16.5922,76.3456-67.5988,91.1214-67.0703l21.9789,4.856c.4734-.393,1.7602-1.4121,2.7493-1.3618,3.9966.2043,4.1008,4.848,4.1008,4.848l49.2543,7.9954s5.1037-2.555,5.9932-2.5129c2.1785.1068,3.11,1.9785,3.11,1.9785,0,0,12.7608-7.6417,16.8703-5.863,13.4928,5.8219,80.6793,38.4706,70.7093,53.6229Z"/>
    <g>
      <path class="cls-12" d="M155.8637,385.7439s-7.6457,9.3916-21.3164,11.5615c-2.5918.4115-4.873.828-6.8628,1.2382.6487-1.5625,2.7268-3.4304,2.7268-3.4304,0,0-.3882-5.8406-.5873-11.7862,5.7828,3.7807,15.8494,8.1805,26.0397,2.4169Z"/>
      <path class="cls-12" d="M133.7566,358.1427c.3935-1.2623.6493-2.0642.6493-2.0642l-3.4644-32.4371c5.1758,7.4235,23.6376,32.7219,36.3683,35.4519,13.3031,2.8468-22.2716,7.8821-33.5532-.9506Z"/>
      <path class="cls-12" d="M234.1218,398.2029c-13.8977-1.5807-33.5585-5.0846-35.5259-12.3579-3.0596-11.365,11.8414-18.1806,33.0443-23.1597-2.4583,1.9774-4.6882,3.1205-6.3688,2.8134l8.8504,32.7042Z"/>
      <path class="cls-12" d="M320.6603,311.5972c-20.4699,16.9478-67.6632,25.3231-67.6632,25.3231,0,0-1.5771,2.37-4.0084,5.7442-3.988-9.3236-9.7355-28.6024-3.0145-52.2959,0,0,3.6373,19.6893,18.7281,24.3668,0,0-11.5511-8.6038-7.5204-29.3153,0,0,3.9384,24.379,29.5876,31.1085,12.4761,3.2711,24.6597-.354,33.8908-4.9314Z"/>
      <path class="cls-12" d="M129.894,313.8143l-.5672-5.2432-17.9017,5.4681s.9536,2.0941,2.2294,5.0371c-6.8452-.7067-19.8329,5.6523-22.0994-1.274-2.732-8.3587,14.0798-5.4777,14.0798-5.4777l15.8593-9.2259c-3.0011-12.8251,4.635-22.4684,4.635-22.4684l1.4502,8.9469c.6955-17.0114,7.3483-26.3156,7.3483-26.3156-5.5344,13.4525-5.3816,46.5613-5.0337,50.5527Z"/>
      <path class="cls-12" d="M128.4268,345.7002l-16.9504,19.8123-5.0131-3.4976s-.7288.5729-2.0196,1.2706c-3.2957,1.789-10.2113,4.4176-17.761.4029,5.4936-7.6,16.837-18.7881,30.3413-23.1085,0,0-5.5565,8.1266-9.0061,15.3911l3.4834,3.4334s8.691-9.9086,16.9255-13.7042Z"/>
      <path class="cls-12" d="M169.6021,258.4386c-.0051,1.744-1.1035,21.5682,13.3155,26.8057,14.4189,5.2374,27.2414-3.6452,27.2414-3.6452,0,0-22.1163,21.3273-35.5713,9.9296-13.4549-11.3978-4.9856-33.0901-4.9856-33.0901Z"/>
    </g>
    <path class="cls-10" d="M127.7889,409.8454s-.7821-9.0834-.2023-11.0183c.4857-1.6208,2.8209-3.7122,2.8209-3.7122,0,0-1.2242-18.4136-.4403-23.1599.6718-4.0674,4.4417-15.8804,4.4417-15.8804l-5.0795-47.5041-17.9024,5.4722s7.6222,16.8379,8.8021,21.8554,8.1998,9.8053,8.1998,9.8053l-16.9566,19.8069-5.0084-3.4915s-14.7941,11.5662-28.1584-5.7397c-13.3642-17.3059-19.0994-31.3925-17.2223-47.9796,1.877-16.5871,76.3518-67.5962,91.127-67.071l21.9754,4.8587c.4763-.3913,1.7606-1.41,2.7488-1.3596,3.9967.204,4.101,4.8489,4.101,4.8489l49.2495,7.9946s5.1121-2.5549,5.9996-2.5106c2.1789.1086,3.1109,1.972,3.1109,1.972,0,0,12.7552-7.6367,16.871-5.8609,13.487,5.8191,80.6723,38.4724,70.7044,53.6239-14.1501,21.5086-73.9705,32.1214-73.9705,32.1214,0,0-19.8973,30.0054-27.7328,28.5769l12.8157,46.9083"/>
    <path class="cls-7" d="M274.9244,308.0796c22.6012,14.931,40.8191,12.166,55.0811-7.0439,0,0,11.8715-15.3035,11.0307-31.8176s-4.7847-70.3655-56.2384-56.5958c-8.4675,2.266-28.2338,28.7366-29.8996,36.0102-.7613,3.3244-8.6956,20.2473-16.3969,37.7631"/>
    <path class="cls-15" d="M213.7731,149.9057s14.3941-2.1846,24.4012,6.7722c12.6489,11.3215,26.8469,41.8402,6.6208,92.4232,0,0-29.8747-19.8364-80.8646-6.5708,0,0,4.39-11.8666-3.3168-49.2142-3.4846-16.8864,5.2766-55.8205,53.1594-43.4104Z"/>
    <g>
      <path class="cls-1" d="M191.9415,276.8335c21.3101,3.4544,43.9564-20.1351,43.9564-20.1351,0,0-11.5876-1.4285-12.6248-6.8683-3.3245-17.1609,10.0454-38.3582,10.0454-38.3582,0,0-51.7434,1.4319-42.6953,13.1405,1.8976,2.4575,3.2045,4.8108,4.0925,7.0177,3.1375,7.7078.961,13.5232-.7085,14.9417-.1207.1026-.2585.1851-.3762.2504-3.1311,1.431-15.9911-.7001-15.9911-.7001,0,0-5.1418,27.5585,14.3016,30.7114Z"/>
      <path class="cls-10" d="M228.5607,263.2294s-9.8251,3.9314-24.2204,2.7617l-6.4845,3.1771"/>
      <path class="cls-10" d="M191.4027,268.6438l-.4756-4.2555s-10.6124-3.3241-13.8979-9.6352"/>
      <path class="cls-15" d="M194.0072,246.5718c15.8466,4.1424,23.2875-16.1812,23.2875-16.1812,0,0-12.6772-3.7797-22.579,1.2395,3.1375,7.7078.961,13.5232-.7085,14.9417Z"/>
    </g>
    <g>
      <path class="cls-1" d="M234.2331,200.7806c3.8552-21.6391-.4304-47.6077-33.3645-45.4564-23.5302,1.537-23.3366,27.336-21.7791,35.0361,2.6195,12.9511-1.1345,18.0515,2.9002,28.9303,2.8996,7.8185,9.6379,16.561,17.5668,19.8365,4.8784,2.0153,24.6273-11.8431,26.087-18.1792"/>
      <path class="cls-10" d="M192.8481,194.4009c-.1973,2.4288-.4832,8.4474-5.6278,12.8864-3.3279,2.8714,4.3118,5.8101,4.3118,5.8101"/>
      <path class="cls-10" d="M187.3812,185.8155s-7.2684-3.5406-12.1789,2.3022"/>
      <path class="cls-10" d="M199.5721,185.3569s7.0238-2.5194,15.5373.6112"/>
      <path class="cls-15" d="M207.1211,195.5719c.2258,2.0877,1.6311,3.6479,3.1389,3.4848,1.5077-.1631,2.5469-1.9877,2.321-4.0754-.2258-2.0877-1.6311-3.6479-3.1389-3.4849-1.5077.1631-2.5469,1.9878-2.321,4.0755Z"/>
      <path class="cls-10" d="M191.8916,219.9347c9.1399-1.1093,16.2541-5.9366,16.2541-5.9366,0,0,.6781,9.0779-6.9244,10.9661-5.8316,1.4484-8.0904-5.2076-8.0904-5.2076"/>
      <path class="cls-15" d="M213.2658,163.5693s-2.0836,25.642,20.5524,34.9577l10.6039-24.6476-16.042-17.7685-24.1725-6.9825c-36.1119,2.2513-51.6599,24.6935-31.6086,84.4758,0,0-5.6072-71.2022,40.6668-70.0349Z"/>
      <path class="cls-1" d="M228.869,199.6155c-.3118-2.8822,6.977-10.2232,9.4445-5.5121,4.2048,8.0284,1.1413,15.0279-3.207,17.77-1.9477,1.2283-4.4153,3.528-6.1503,1.3581"/>
      <path class="cls-15" d="M185.083,196.5262c.2258,2.0877,1.6311,3.6479,3.1388,3.4848,1.5078-.1631,2.5469-1.9877,2.3211-4.0754s-1.6311-3.6479-3.1389-3.4848c-1.5077.1631-2.5469,1.9877-2.321,4.0754Z"/>
      <g class="cls-11">
        <path class="cls-6" d="M169.3968,192.3168c-.2711,1.7403-.456,3.4938-.5629,5.2517"/>
        <path class="cls-6" d="M209.5151,158.9039c-18.2942-.4832-35.2946,11.1782-39.3415,29.4878"/>
        <path class="cls-6" d="M206.2479,153.6771s-26.3802-6.2048-36.2719,11.2937"/>
        <path class="cls-6" d="M227.651,184.162c1.6141,2.2414,3.4875,4.3149,5.6873,5.9956"/>
        <path class="cls-6" d="M217.188,157.0953c1.4133,8.2453,4.1289,16.6191,8.3685,23.8423"/>
        <path class="cls-6" d="M243.695,236.4555c-.4678,2.1008-1.018,4.1832-1.643,6.2427"/>
        <path class="cls-6" d="M242.17,201.5944c4.2805,9.5018,3.9861,21.3241,2.2293,31.3247"/>
        <path class="cls-6" d="M239.0278,218.1418s1.3105,10.6037-7.4365,19.5514"/>
        <path class="cls-6" d="M226.8635,160.1548c4.489,6.0703,7.8202,12.577,13.0228,18.12,5.4768,5.8352,10.9534,12.5223,11.982,20.7434"/>
        <path class="cls-6" d="M220.5398,153.8461c1.2889.8356,2.4582,1.8443,3.52,2.9522"/>
      </g>
    </g>
    <path class="cls-8" d="M310.7903,294.6521c-.5213.1182-1.0502.2057-1.5881.2824-14.1601,2.0197-30.0419-9.715-35.3975-23.8151-4.2326-11.1294-.5274-23.7608,1.4869-29.1654.6393-1.6938,1.1007-2.6797,1.1007-2.6797,8.536-12.1987,58.1867,11.6609,58.7636,24.8108.5777,13.1399-9.8201,27.3846-24.3656,30.567Z"/>
    <g>
      <path class="cls-2" d="M326.3227,265.8655s-2.8212,20.8902-17.1205,29.069c-14.1601,2.0197-30.0419-9.715-35.3975-23.8151-4.2326-11.1294-.5274-23.7608,1.4869-29.1654.0009-.01.0108-.0092.0108-.0092,16.7281-9.5465,51.0203,23.9207,51.0203,23.9207Z"/>
      <g class="cls-16">
        <path class="cls-13" d="M326.3227,265.8655s-2.8212,20.8902-17.1205,29.069c-14.1601,2.0197-30.0419-9.715-35.3975-23.8151-4.2326-11.1294-.5274-23.7608,1.4869-29.1654.0009-.01.0108-.0092.0108-.0092,16.7281-9.5465,51.0203,23.9207,51.0203,23.9207Z"/>
      </g>
      <path class="cls-10" d="M326.3227,265.8655s-2.8212,20.8902-17.1205,29.069c-14.1601,2.0197-30.0419-9.715-35.3975-23.8151-4.2326-11.1294-.5274-23.7608,1.4869-29.1654.0009-.01.0108-.0092.0108-.0092,16.7281-9.5465,51.0203,23.9207,51.0203,23.9207Z"/>
    </g>
    <path class="cls-10" d="M267.7804,276.8675s16.1207,23.1399,34.9457,25.0664c18.825,1.9266,30.8645-13.9304,31.6472-25.8896"/>
    <path class="cls-1" d="M258.711,172.417c1.4191-3.967,11.5884-2.6358,14.8114,9.7305,3.2229,12.3663,15.9465,42.4041,15.9465,42.4041,0,0,50.5292-74.3561,59.5939-77.2221,9.0648-2.866,5.4727,10.0181-6.6295,27.8962,0,0,11.3357-1.9958,14.311.0088,2.9754,2.0047,1.5277,14.0082,3.1126,18.2174,2.6562,7.0546-3.2484,8.5446-3.2484,8.5446,0,0,4.6468-.0416,7.8925,3,3.2456,3.0416,1.6176,15.6189,2.5445,19.1751.9268,3.5562-5.2687,6.5635-5.2687,6.5635,0,0,14.8989,8.126,11.5349,10.1594-5.672,3.4284-8.9089-.0834-8.9089-.0834,0,0-22.8877,28.7518-40.1514,35.15s-50.8762-19.0429-54.4883-32.9024c-3.6121-13.8594.6988-13.0048-2.041-36.0666-2.7399-23.0618-9.0111-34.5751-9.0111-34.5751Z"/>
    <rect class="cls-1" x="277.1696" y="133.2693" width="77.6411" height="133.6095" rx="4.424" ry="4.424" transform="translate(-40.244 86.159) rotate(-14.6076)"/>
    <g>
      <path class="cls-7" d="M294.2885,140.6021c.1509.5789-.1961,1.1705-.775,1.3214-.5789.1508-1.1705-.1961-1.3214-.775-.1509-.579.1961-1.1706.775-1.3214.5789-.1509,1.1705.1961,1.3214.775Z"/>
      <path class="cls-7" d="M307.9999,137.0286c.0946.3629-.1229.7338-.4859.8284-.3629.0946-.7338-.123-.8283-.4859-.0946-.3629.1229-.7338.4858-.8284.3629-.0945.7338.123.8284.4859Z"/>
      <rect class="cls-7" x="295.8941" y="138.6424" width="8.8879" height=".7662" rx=".3179" ry=".3179" transform="translate(-25.3532 80.2357) rotate(-14.6071)"/>
    </g>
    <path class="cls-7" d="M335.8191,131.136l31.2073,119.7417c.3647,1.3994-.474,2.8295-1.8735,3.1943l-65.7158,17.1269c-1.3994.3647-2.8295-.474-3.1942-1.8735l-31.2073-119.7416c-.3647-1.3994.474-2.8296,1.8735-3.1943l13.4912-3.5161c.8881-.2314,1.8265.1134,2.3533.8649l.9747,1.3903c.5268.7514,1.4652,1.0963,2.3532.8649l29.6164-7.7187c.8881-.2315,1.5388-.9905,1.6318-1.9035l.1721-1.6891c.093-.913.7437-1.6721,1.6318-1.9035l13.4913-3.5162c1.3994-.3647,2.8295.4741,3.1942,1.8735Z"/>
    <g>
      <circle class="cls-1" cx="312.6616" cy="187.3024" r="27.7617" transform="translate(16.3154 399.4778) rotate(-66.5256)"/>
      <g>
        <path class="cls-7" d="M301.1758,203.2235c.4587,1.1608,1.7829,1.7282,2.9821,1.3818l9.1215-2.635c.0244.1937.0593.3878.1152.5812.5795,2.0062,2.6756,3.1628,4.6818,2.5833,2.0062-.5796,3.1627-2.6757,2.5831-4.6819-.0559-.1935-.1298-.3763-.2124-.5531l9.1215-2.635c1.1992-.3464,2.0168-1.5325,1.7858-2.7591-.265-1.4071-1.6711-2.2492-3.0137-1.8614l-.7733-.4644c-1.6601-.9966-2.8814-2.5846-3.4188-4.4447l-1.7354-6.0077c-1.4957-5.1776-6.5739-8.3358-11.761-7.5837.6753-.7196.9733-1.7591.6796-2.7759-.4432-1.5342-2.0462-2.4186-3.5804-1.9754-1.5342.4431-2.4186,2.0461-1.9754,3.5803.2937,1.0168,1.1001,1.7372,2.0551,1.9859-4.7891,2.1297-7.401,7.5094-5.9053,12.687l1.7548,6.0746c.6195,2.1447.2734,4.4528-.9479,6.3215h0c-1.3425.3878-2.0831,1.85-1.5569,3.1817ZM310.1767,171.7016c.2589.8963-.2577,1.8326-1.154,2.0916-.8963.2589-1.8327-.2578-2.0916-1.1541s.2578-1.8327,1.154-2.0916c.8963-.2589,1.8327.2578,2.0916,1.1541Z"/>
        <line class="cls-7" x1="318.7868" y1="200.0494" x2="314.7637" y2="201.2115"/>
        <line class="cls-7" x1="324.7426" y1="193.6061" x2="306.2894" y2="198.9367"/>
      </g>
    </g>
    <path class="cls-15" d="M344.0275,230.8951l-37.4647,9.7641c-4.4912,1.1705-9.0809-1.5214-10.2514-6.0126h0c-1.1705-4.4912,1.5215-9.0809,6.0126-10.2514l37.4648-9.7641c4.4912-1.1705,9.0809,1.5214,10.2514,6.0126h0c1.1705,4.4912-1.5215,9.0809-6.0127,10.2514Z"/>
    <path class="cls-10" d="M253.0003,336.9169s-11.3675-26.4523-5.5686-58.5276"/>
    <path class="cls-10" d="M225.2675,365.4938s-22.9775,7.0252-25.3086,12.3133c-2.331,5.2881,10.3056.8374,10.3056.8374"/>
    <path class="cls-10" d="M239.3954,257.0325s-21.1608,20.9688-35.3172,26.566"/>
    <path class="cls-10" d="M170.0603,251.3985s-3.8534,28.3119,10.535,33.6571"/>
    <path class="cls-10" d="M129.3294,308.5705s-.117-37.1214,7.2565-48.5978"/>
    <path class="cls-10" d="M126.5811,270.7523s-2.0741,23.0506,2.575,30.5727"/>
    <path class="cls-10" d="M111.427,314.0427s-16.0936-5.5433-19.4305,1.3299,9.5979.7799,9.5979.7799"/>
    <path class="cls-10" d="M121.1065,338.1129s-15.8049,8.9028-16.6157,13.9967"/>
    <path class="cls-10" d="M146.9232,313.4852s30.2498,45.7211,46.9489,41.5213"/>
    <path class="cls-10" d="M167.5929,377.6116s-23.7212,17.3888-27.1738,15.9175"/>
    <path class="cls-12" d="M333.7355,303.4193c1.6018-1.3146,2.6555-2.1821,2.9988-2.4552-.3565.3122-1.3927,1.2112-2.9988,2.4552Z"/>
    <text class="cls-4" transform="translate(303.4921 236.8135) rotate(-14.6152)"><tspan x="0" y="0">CONTACT</tspan></text>
  </g>
</svg>